<mxfile host="app.diagrams.net" agent="Mozilla/5.0 (Windows NT 10.0; Win64; x64) AppleWebKit/537.36 (KHTML, like Gecko) Chrome/132.0.0.0 Safari/537.36 OPR/117.0.0.0" version="26.2.7">
  <diagram name="Página-1" id="Wl_-M_z7iz_NTBveG3hm">
    <mxGraphModel dx="833" dy="1622" grid="1" gridSize="10" guides="1" tooltips="1" connect="1" arrows="1" fold="1" page="1" pageScale="1" pageWidth="827" pageHeight="1169" math="0" shadow="0">
      <root>
        <mxCell id="0" />
        <mxCell id="1" parent="0" />
        <mxCell id="fPY0kMuf9-_dNGhth9se-4" value="" style="edgeStyle=orthogonalEdgeStyle;rounded=0;orthogonalLoop=1;jettySize=auto;html=1;" edge="1" parent="1" source="fPY0kMuf9-_dNGhth9se-1" target="fPY0kMuf9-_dNGhth9se-3">
          <mxGeometry relative="1" as="geometry" />
        </mxCell>
        <mxCell id="fPY0kMuf9-_dNGhth9se-1" value="Início" style="rounded=1;whiteSpace=wrap;html=1;fontSize=12;glass=0;strokeWidth=1;shadow=0;" vertex="1" parent="1">
          <mxGeometry x="390" y="-1000" width="60" height="40" as="geometry" />
        </mxCell>
        <mxCell id="fPY0kMuf9-_dNGhth9se-2" value="Fim" style="rounded=1;whiteSpace=wrap;html=1;fontSize=12;glass=0;strokeWidth=1;shadow=0;" vertex="1" parent="1">
          <mxGeometry x="375" y="-80" width="60" height="40" as="geometry" />
        </mxCell>
        <mxCell id="fPY0kMuf9-_dNGhth9se-6" value="" style="edgeStyle=orthogonalEdgeStyle;rounded=0;orthogonalLoop=1;jettySize=auto;html=1;" edge="1" parent="1" source="fPY0kMuf9-_dNGhth9se-3" target="fPY0kMuf9-_dNGhth9se-5">
          <mxGeometry relative="1" as="geometry" />
        </mxCell>
        <mxCell id="fPY0kMuf9-_dNGhth9se-3" value="&lt;div&gt;&lt;br&gt;&lt;/div&gt;&lt;div&gt;&lt;br&gt;&lt;/div&gt;Ler quant_h" style="shape=manualInput;whiteSpace=wrap;html=1;" vertex="1" parent="1">
          <mxGeometry x="375" y="-890" width="90" height="60" as="geometry" />
        </mxCell>
        <mxCell id="fPY0kMuf9-_dNGhth9se-8" value="" style="edgeStyle=orthogonalEdgeStyle;rounded=0;orthogonalLoop=1;jettySize=auto;html=1;" edge="1" parent="1" source="fPY0kMuf9-_dNGhth9se-5" target="fPY0kMuf9-_dNGhth9se-7">
          <mxGeometry relative="1" as="geometry" />
        </mxCell>
        <mxCell id="fPY0kMuf9-_dNGhth9se-5" value="&lt;div&gt;&lt;br&gt;&lt;/div&gt;&lt;div&gt;&lt;br&gt;&lt;/div&gt;Ler quant_cb" style="shape=manualInput;whiteSpace=wrap;html=1;" vertex="1" parent="1">
          <mxGeometry x="375" y="-750" width="90" height="60" as="geometry" />
        </mxCell>
        <mxCell id="fPY0kMuf9-_dNGhth9se-10" value="" style="edgeStyle=orthogonalEdgeStyle;rounded=0;orthogonalLoop=1;jettySize=auto;html=1;" edge="1" parent="1" source="fPY0kMuf9-_dNGhth9se-7" target="fPY0kMuf9-_dNGhth9se-9">
          <mxGeometry relative="1" as="geometry" />
        </mxCell>
        <mxCell id="fPY0kMuf9-_dNGhth9se-7" value="&lt;div&gt;&lt;br&gt;&lt;/div&gt;&lt;div&gt;&lt;br&gt;&lt;/div&gt;Ler quant_m" style="shape=manualInput;whiteSpace=wrap;html=1;" vertex="1" parent="1">
          <mxGeometry x="605" y="-750" width="90" height="60" as="geometry" />
        </mxCell>
        <mxCell id="fPY0kMuf9-_dNGhth9se-12" value="" style="edgeStyle=orthogonalEdgeStyle;rounded=0;orthogonalLoop=1;jettySize=auto;html=1;" edge="1" parent="1" source="fPY0kMuf9-_dNGhth9se-9" target="fPY0kMuf9-_dNGhth9se-11">
          <mxGeometry relative="1" as="geometry" />
        </mxCell>
        <mxCell id="fPY0kMuf9-_dNGhth9se-9" value="&lt;div&gt;&lt;br&gt;&lt;/div&gt;&lt;div&gt;&lt;br&gt;&lt;/div&gt;Ler quant_c-c" style="shape=manualInput;whiteSpace=wrap;html=1;" vertex="1" parent="1">
          <mxGeometry x="605" y="-610" width="90" height="60" as="geometry" />
        </mxCell>
        <mxCell id="fPY0kMuf9-_dNGhth9se-14" value="" style="edgeStyle=orthogonalEdgeStyle;rounded=0;orthogonalLoop=1;jettySize=auto;html=1;" edge="1" parent="1" source="fPY0kMuf9-_dNGhth9se-11" target="fPY0kMuf9-_dNGhth9se-13">
          <mxGeometry relative="1" as="geometry" />
        </mxCell>
        <mxCell id="fPY0kMuf9-_dNGhth9se-11" value="Hamburguer = 3,5 * quant_h" style="whiteSpace=wrap;html=1;" vertex="1" parent="1">
          <mxGeometry x="330" y="-610" width="160" height="60" as="geometry" />
        </mxCell>
        <mxCell id="fPY0kMuf9-_dNGhth9se-16" value="" style="edgeStyle=orthogonalEdgeStyle;rounded=0;orthogonalLoop=1;jettySize=auto;html=1;" edge="1" parent="1" source="fPY0kMuf9-_dNGhth9se-13" target="fPY0kMuf9-_dNGhth9se-15">
          <mxGeometry relative="1" as="geometry" />
        </mxCell>
        <mxCell id="fPY0kMuf9-_dNGhth9se-13" value="Cheeseburguer = 4,1 * quant_cb" style="whiteSpace=wrap;html=1;" vertex="1" parent="1">
          <mxGeometry x="330" y="-470" width="160" height="60" as="geometry" />
        </mxCell>
        <mxCell id="fPY0kMuf9-_dNGhth9se-18" value="" style="edgeStyle=orthogonalEdgeStyle;rounded=0;orthogonalLoop=1;jettySize=auto;html=1;" edge="1" parent="1" source="fPY0kMuf9-_dNGhth9se-15" target="fPY0kMuf9-_dNGhth9se-17">
          <mxGeometry relative="1" as="geometry" />
        </mxCell>
        <mxCell id="fPY0kMuf9-_dNGhth9se-15" value="MilkShake= 6,0 * quant_m" style="whiteSpace=wrap;html=1;" vertex="1" parent="1">
          <mxGeometry x="570" y="-470" width="160" height="60" as="geometry" />
        </mxCell>
        <mxCell id="fPY0kMuf9-_dNGhth9se-20" value="" style="edgeStyle=orthogonalEdgeStyle;rounded=0;orthogonalLoop=1;jettySize=auto;html=1;" edge="1" parent="1" source="fPY0kMuf9-_dNGhth9se-17" target="fPY0kMuf9-_dNGhth9se-19">
          <mxGeometry relative="1" as="geometry" />
        </mxCell>
        <mxCell id="fPY0kMuf9-_dNGhth9se-17" value="CocaCola= 2,5 * quant_c-c" style="whiteSpace=wrap;html=1;" vertex="1" parent="1">
          <mxGeometry x="570" y="-330" width="160" height="60" as="geometry" />
        </mxCell>
        <mxCell id="fPY0kMuf9-_dNGhth9se-22" value="" style="edgeStyle=orthogonalEdgeStyle;rounded=0;orthogonalLoop=1;jettySize=auto;html=1;" edge="1" parent="1" source="fPY0kMuf9-_dNGhth9se-19" target="fPY0kMuf9-_dNGhth9se-21">
          <mxGeometry relative="1" as="geometry" />
        </mxCell>
        <mxCell id="fPY0kMuf9-_dNGhth9se-19" value="Total = Hamburguer + Cheeseburguer + MilkShake + CocaCola&amp;nbsp;" style="whiteSpace=wrap;html=1;" vertex="1" parent="1">
          <mxGeometry x="340" y="-340" width="130" height="80" as="geometry" />
        </mxCell>
        <mxCell id="fPY0kMuf9-_dNGhth9se-23" value="" style="edgeStyle=orthogonalEdgeStyle;rounded=0;orthogonalLoop=1;jettySize=auto;html=1;" edge="1" parent="1" source="fPY0kMuf9-_dNGhth9se-21" target="fPY0kMuf9-_dNGhth9se-2">
          <mxGeometry relative="1" as="geometry" />
        </mxCell>
        <mxCell id="fPY0kMuf9-_dNGhth9se-21" value="Total" style="shape=display;whiteSpace=wrap;html=1;" vertex="1" parent="1">
          <mxGeometry x="365" y="-190" width="80" height="40" as="geometry" />
        </mxCell>
      </root>
    </mxGraphModel>
  </diagram>
</mxfile>
